<?xml version="1.0" encoding="utf-8"?>
<!-- Generator: Adobe Illustrator 16.0.0, SVG Export Plug-In . SVG Version: 6.00 Build 0)  -->
<!DOCTYPE svg PUBLIC "-//W3C//DTD SVG 1.1//EN" "http://www.w3.org/Graphics/SVG/1.1/DTD/svg11.dtd">
<svg version="1.1" id="Layer_1" xmlns="http://www.w3.org/2000/svg" xmlns:xlink="http://www.w3.org/1999/xlink" x="0px" y="0px"
	 width="134px" height="134px" viewBox="0 0 134 134" enable-background="new 0 0 134 134" xml:space="preserve">
<g id="Lices">
	<path fill="#990D46" d="M66.587-0.09c-37.002,0-67,29.998-67,67s29.998,67,67,67c37.004,0,67-29.998,67-67
		S103.591-0.09,66.587-0.09z M105.138,58.398c-1.711,10.314-9.254,20.273-38.551,48.789C37.86,79.227,29.786,68.943,28.036,58.398
		c-2.139-12.896,7.461-25.766,22.42-25.766c6.412,0,12.238,2.463,16.131,6.578c3.893-4.115,9.719-6.578,16.129-6.578
		C97.61,32.633,107.288,45.438,105.138,58.398z"/>
	<path fill="#990D46" d="M60.237,59.955c-1.498,0-1.486,2.318-1.486,3.35c0,1.066-0.023,3.051,1.486,3.051
		c0.609,0,1.186-0.398,1.508-0.898v-2.629C61.745,61.863,61.567,59.955,60.237,59.955z"/>
	<path fill="#990D46" d="M72.937,59.955c-1.498,0-1.486,2.318-1.486,3.35c0,1.066-0.021,3.051,1.486,3.051
		c0.611,0,1.188-0.398,1.51-0.898v-2.629C74.446,61.863,74.269,59.955,72.937,59.955z"/>
	<path fill="#990D46" d="M82.716,40.201c-9.732,0-13.883,7.664-16.129,11.285c-2.109-3.4-5.902-11.285-16.131-11.285
		c-6.041,0-11.133,3.041-13.621,8.135c-6.375,13.041,7.98,26.287,29.752,48.102C88.44,74.539,102.7,61.348,96.339,48.336
		C93.851,43.242,88.757,40.201,82.716,40.201z M65.616,69.695c0,3.549-1.064,7.553-5.379,7.553c-3.461,0-5.059-2.473-5.158-5.744
		V71.17h3.781c0,1.043,0.035,2.752,1.377,2.752c1.652,0,1.531-3.307,1.531-4.426l-0.012-0.5c-0.678,0.377-1.441,0.555-2.207,0.555
		c-3.738,0-4.693-2.852-4.693-6.068c0-3.404,1.453-6.91,5.381-6.91c3.826,0,5.379,3.582,5.379,6.91V69.695z M78.317,69.695
		c0,3.549-1.064,7.553-5.381,7.553c-3.461,0-5.059-2.473-5.158-5.744V71.17h3.783c0,1.043,0.033,2.752,1.375,2.752
		c1.654,0,1.531-3.307,1.531-4.426l-0.012-0.5c-0.676,0.377-1.441,0.555-2.207,0.555c-3.738,0-4.691-2.852-4.691-6.068
		c0-3.404,1.453-6.91,5.379-6.91c3.828,0,5.381,3.582,5.381,6.91V69.695z"/>
</g>
</svg>
