<?xml version="1.0" encoding="utf-8"?>
<!-- Generator: Adobe Illustrator 16.0.0, SVG Export Plug-In . SVG Version: 6.00 Build 0)  -->
<!DOCTYPE svg PUBLIC "-//W3C//DTD SVG 1.1//EN" "http://www.w3.org/Graphics/SVG/1.1/DTD/svg11.dtd">
<svg version="1.1" id="Layer_1" xmlns="http://www.w3.org/2000/svg" xmlns:xlink="http://www.w3.org/1999/xlink" x="0px" y="0px"
	 width="45px" height="45px" viewBox="0 0 45 45" enable-background="new 0 0 45 45" xml:space="preserve">
<path id="gear-icon" fill="#1E1E1E" d="M44.825,25.427v-6.012l-3.25-1.155c-1.238-0.441-2.234-1.387-2.739-2.602v-0.001
	c-0.504-1.218-0.469-2.592,0.097-3.784l1.48-3.113l-4.252-4.251l-3.113,1.48c-1.189,0.565-2.566,0.601-3.783,0.097h-0.001
	c-1.216-0.505-2.16-1.5-2.602-2.74l-1.156-3.25h-6.012l-1.155,3.25c-0.442,1.239-1.387,2.235-2.602,2.739
	c0,0.001-0.001,0.001-0.001,0.001c-1.218,0.504-2.592,0.468-3.784-0.097l-3.113-1.48L4.587,8.76l1.48,3.113
	c0.565,1.19,0.601,2.566,0.097,3.784c0,0.001,0,0.001-0.001,0.001c-0.504,1.216-1.5,2.161-2.739,2.601l-3.25,1.156v6.012l3.25,1.155
	c1.239,0.44,2.235,1.388,2.739,2.602c0.001,0.001,0.001,0.001,0.001,0.001c0.504,1.218,0.468,2.594-0.097,3.784l-1.48,3.113
	l4.251,4.252l3.113-1.48c1.19-0.564,2.566-0.601,3.784-0.097c0.001,0,0.001,0,0.001,0c1.216,0.505,2.159,1.5,2.601,2.739l1.156,3.25
	h6.012l1.149-3.229c0.444-1.251,1.398-2.257,2.624-2.766c0,0,0-0.001,0.001-0.001c1.205-0.501,2.567-0.468,3.747,0.093l3.134,1.49
	l4.252-4.252l-1.481-3.115c-0.564-1.188-0.6-2.564-0.096-3.78v-0.001c0.505-1.217,1.501-2.163,2.741-2.604L44.825,25.427z
	 M22.5,30.608c-4.522,0-8.188-3.665-8.188-8.188c0-4.522,3.666-8.188,8.188-8.188c4.522,0,8.188,3.666,8.188,8.188
	C30.688,26.943,27.022,30.608,22.5,30.608z"/>
</svg>
