<?xml version="1.0" encoding="utf-8"?>
<!-- Generator: Adobe Illustrator 16.0.0, SVG Export Plug-In . SVG Version: 6.00 Build 0)  -->
<!DOCTYPE svg PUBLIC "-//W3C//DTD SVG 1.1//EN" "http://www.w3.org/Graphics/SVG/1.1/DTD/svg11.dtd">
<svg version="1.1" id="Layer_1" xmlns="http://www.w3.org/2000/svg" xmlns:xlink="http://www.w3.org/1999/xlink" x="0px" y="0px"
	 width="350.902px" height="74.104px" viewBox="0 0 350.902 74.104" enable-background="new 0 0 350.902 74.104"
	 xml:space="preserve">
<g>
	<g>
		<path fill="#FFFFFF" d="M30.432,74.104c-18.588,0-30.182-8.363-30.182-23.711h14.591c0,7.674,6.196,11.904,16.389,11.904
			c9.095,0,14.69-3.148,14.69-9.149c0-5.805-3.696-7.871-13.691-9.838l-10.193-1.968C7.246,38.489,1.55,33.275,1.55,22.059
			c0-13.97,10.093-22.038,27.582-22.038c17.788,0,28.581,7.871,28.581,23.022h-13.99c0-7.28-5.797-11.216-15.29-11.216
			c-7.696,0-12.593,3.443-12.593,8.855c0,5.214,3.098,7.28,13.791,9.346l11.392,2.165c13.493,2.558,19.287,7.87,19.287,19.185
			C60.311,65.938,49.219,74.104,30.432,74.104z"/>
		<path fill="#FFFFFF" d="M114.971,47.344H96.283v25.58H81.292V1.201h32.18c15.188,0,23.483,7.871,23.483,22.235
			C136.955,37.997,128.362,47.344,114.971,47.344z M110.273,13.499h-13.99v21.546h13.99c7.995,0,11.693-3.443,11.693-10.724
			C121.966,16.943,118.268,13.499,110.273,13.499z"/>
		<path fill="#FFFFFF" d="M254.57,13.499v59.425h-14.991V13.499h-22.084V1.201h58.361v12.298H254.57z"/>
		<path fill="#FFFFFF" d="M321.021,74.104c-18.589,0-30.18-8.363-30.18-23.711h14.589c0,7.674,6.197,11.904,16.391,11.904
			c9.094,0,14.69-3.148,14.69-9.149c0-5.805-3.698-7.871-13.691-9.838l-10.193-1.968c-14.79-2.854-20.487-8.068-20.487-19.284
			c0-13.97,10.095-22.038,27.582-22.038c17.79,0,28.583,7.871,28.583,23.022h-13.992c0-7.28-5.797-11.216-15.29-11.216
			c-7.695,0-12.593,3.443-12.593,8.855c0,5.214,3.1,7.28,13.791,9.346l11.395,2.165c13.49,2.558,19.287,7.87,19.287,19.185
			C350.902,65.938,339.809,74.104,321.021,74.104z"/>
	</g>
	<ellipse fill="#ED1164" cx="179.423" cy="37.062" rx="24.897" ry="24.511"/>
</g>
</svg>
